<?xml version="1.0" encoding="UTF-8" standalone="no"?>
<!-- Created with Inkscape (http://www.inkscape.org/) -->

<svg
   width="64"
   height="64"
   viewBox="0 0 16.933333 16.933333"
   version="1.1"
   id="svg1"
   inkscape:version="1.4.3 (0d15f75, 2025-12-25)"
   sodipodi:docname="protojam-inkscape.svg"
   inkscape:export-filename="..\media\protojam_256.png"
   inkscape:export-xdpi="384"
   inkscape:export-ydpi="384"
   xmlns:inkscape="http://www.inkscape.org/namespaces/inkscape"
   xmlns:sodipodi="http://sodipodi.sourceforge.net/DTD/sodipodi-0.dtd"
   xmlns="http://www.w3.org/2000/svg"
   xmlns:svg="http://www.w3.org/2000/svg">
  <sodipodi:namedview
     id="namedview1"
     pagecolor="#ffffff"
     bordercolor="#666666"
     borderopacity="1.0"
     inkscape:showpageshadow="2"
     inkscape:pageopacity="0.0"
     inkscape:pagecheckerboard="0"
     inkscape:deskcolor="#d1d1d1"
     inkscape:document-units="mm"
     showgrid="true"
     inkscape:zoom="16.748036"
     inkscape:cx="31.466376"
     inkscape:cy="29.704976"
     inkscape:window-width="2560"
     inkscape:window-height="1377"
     inkscape:window-x="-8"
     inkscape:window-y="32"
     inkscape:window-maximized="1"
     inkscape:current-layer="layer1">
    <inkscape:grid
       id="grid1"
       units="mm"
       originx="0"
       originy="0"
       spacingx="0.26458333"
       spacingy="0.26458333"
       empcolor="#3f3fff"
       empopacity="0.25098039"
       color="#3f3fff"
       opacity="0.1254902"
       empspacing="4"
       enabled="true"
       visible="true" />
  </sodipodi:namedview>
  <defs
     id="defs1" />
  <g
     inkscape:label="Logo"
     inkscape:groupmode="layer"
     id="layer1">
    <path
       id="path1"
       style="baseline-shift:baseline;display:inline;overflow:visible;vector-effect:none;fill:#ffffff;stroke-linecap:round;paint-order:stroke markers fill;enable-background:accumulate;stop-color:#000000;stop-opacity:1;opacity:1;fill-opacity:1;stroke:#ffffff;stroke-opacity:1"
       d="M 4.2421183 0.79271647 C 3.9937523 0.80045844 3.8172021 0.82131501 3.6602417 0.92190755 C 3.5032812 1.0225001 3.3323552 1.2249366 3.1579468 1.6815511 C 2.9853434 2.1334404 2.614924 2.414776 2.3693644 2.6701213 C 2.2465846 2.7977939 2.1557289 2.9147969 2.111499 3.0194539 C 2.0672691 3.1241108 2.0559493 3.2119556 2.1037476 3.3553507 C 2.1839355 3.5959143 2.4712548 3.762921 2.8985311 3.859196 C 2.9920064 3.8802581 3.0896704 3.8975415 3.1894694 3.9113892 C 3.1803334 4.0173443 3.1760335 4.1242143 3.1760335 4.2322998 L 3.1760335 12.698966 C 3.1760334 14.381208 4.3056567 15.847611 5.8358195 15.847611 L 11.097514 15.847611 C 12.627677 15.847611 13.757817 14.381208 13.757817 12.698966 L 13.757817 4.2322998 C 13.757817 4.1242113 13.753 4.0173471 13.743864 3.9113892 C 13.843835 3.8975431 13.941863 3.8802536 14.035319 3.859196 C 14.462595 3.7629215 14.749913 3.5959171 14.830103 3.3553507 C 14.877133 3.2142668 14.865137 3.1306668 14.818217 3.0272054 C 14.771294 2.9237439 14.67411 2.8058979 14.546916 2.6778727 C 14.292529 2.4218223 13.912058 2.1378441 13.769702 1.6639811 C 13.628674 1.1945356 13.46458 1.006153 13.310299 0.91415609 C 13.156018 0.82215917 12.968254 0.81080322 12.724805 0.81080322 L 4.2421183 0.79271647 z M 6.0859334 3.7052002 C 6.5395136 3.7052002 6.8537438 3.8606333 7.1737223 3.988387 C 7.4936998 4.1161406 7.8404862 4.2322998 8.4666667 4.2322998 C 9.0928472 4.2322998 9.4396337 4.1161406 9.759611 3.988387 C 10.079588 3.8606333 10.39382 3.7052002 10.8474 3.7052002 C 11.271399 3.7052002 11.572224 3.777547 11.838037 3.843693 C 12.100926 3.9091116 12.329163 3.9674748 12.687081 3.96875 C 12.695147 4.0546106 12.698966 4.1424343 12.698966 4.2322998 L 12.698966 12.698966 C 12.698966 13.918778 11.929985 14.789277 11.097514 14.789278 L 5.8358195 14.789278 C 5.0033491 14.789278 4.2322998 13.918778 4.2322998 12.698966 L 4.2322998 4.2322998 C 4.2322998 4.1424338 4.2366161 4.0546111 4.2447021 3.96875 C 4.6024447 3.9674323 4.8330231 3.909087 5.095813 3.843693 C 5.3616251 3.7775471 5.6619345 3.7052002 6.0859334 3.7052002 z "
       inkscape:label="Outline" />
    <path
       id="rect4"
       style="fill:#ffffff;stroke-width:1.05833;stroke-linecap:round;paint-order:stroke markers fill"
       inkscape:label="Background"
       d="M 3.7041667,2.6458333 H 13.229166 V 6.3499999 H 3.7041667 Z" />
    <path
       style="fill:#ff9123;fill-opacity:1;stroke:none;stroke-width:0.264583px;stroke-linecap:butt;stroke-linejoin:miter;stroke-opacity:1"
       d="m 4.2333331,4.7624998 2.6458333,0.5291667 2.6458333,-0.5291667 3.1749993,0.5291667 0.529167,1e-7 0,8.2020834 -1.5875,1.852083 -6.3499998,-0.05523 -1.5874996,-1.796853 10e-8,-8.7312502 z"
       id="path2"
       sodipodi:nodetypes="ccccccccccc"
       inkscape:label="Jam" />
    <path
       id="rect1"
       style="baseline-shift:baseline;display:inline;overflow:visible;vector-effect:none;fill:#292929;stroke-linecap:round;paint-order:stroke markers fill;enable-background:accumulate;stop-color:#000000;stop-opacity:1;opacity:1"
       d="M 4.2421183 0.79271647 C 3.9937523 0.80045844 3.8172021 0.82131501 3.6602417 0.92190755 C 3.5032812 1.0225001 3.3323552 1.2249366 3.1579468 1.6815511 C 2.9853434 2.1334404 2.614924 2.414776 2.3693644 2.6701213 C 2.2465846 2.7977939 2.1557289 2.9147969 2.111499 3.0194539 C 2.0672691 3.1241108 2.0559493 3.2119556 2.1037476 3.3553507 C 2.1839355 3.5959143 2.4712548 3.762921 2.8985311 3.859196 C 2.9920064 3.8802581 3.0896704 3.8975415 3.1894694 3.9113892 C 3.1803334 4.0173443 3.1760335 4.1242143 3.1760335 4.2322998 L 3.1760335 12.698966 C 3.1760334 14.381208 4.3056567 15.847611 5.8358195 15.847611 L 11.097514 15.847611 C 12.627677 15.847611 13.757817 14.381208 13.757817 12.698966 L 13.757817 4.2322998 C 13.757817 4.1242113 13.753 4.0173471 13.743864 3.9113892 C 13.843835 3.8975431 13.941863 3.8802536 14.035319 3.859196 C 14.462595 3.7629215 14.749913 3.5959171 14.830103 3.3553507 C 14.877133 3.2142668 14.865137 3.1306668 14.818217 3.0272054 C 14.771294 2.9237439 14.67411 2.8058979 14.546916 2.6778727 C 14.292529 2.4218223 13.912058 2.1378441 13.769702 1.6639811 C 13.628674 1.1945356 13.46458 1.006153 13.310299 0.91415609 C 13.156018 0.82215917 12.968254 0.81080322 12.724805 0.81080322 L 4.2421183 0.79271647 z M 6.0859334 3.7052002 C 6.5395136 3.7052002 6.8537438 3.8606333 7.1737223 3.988387 C 7.4936998 4.1161406 7.8404862 4.2322998 8.4666667 4.2322998 C 9.0928472 4.2322998 9.4396337 4.1161406 9.759611 3.988387 C 10.079588 3.8606333 10.39382 3.7052002 10.8474 3.7052002 C 11.271399 3.7052002 11.572224 3.777547 11.838037 3.843693 C 12.100926 3.9091116 12.329163 3.9674748 12.687081 3.96875 C 12.695147 4.0546106 12.698966 4.1424343 12.698966 4.2322998 L 12.698966 12.698966 C 12.698966 13.918778 11.929985 14.789277 11.097514 14.789278 L 5.8358195 14.789278 C 5.0033491 14.789278 4.2322998 13.918778 4.2322998 12.698966 L 4.2322998 4.2322998 C 4.2322998 4.1424338 4.2366161 4.0546111 4.2447021 3.96875 C 4.6024447 3.9674323 4.8330231 3.909087 5.095813 3.843693 C 5.3616251 3.7775471 5.6619345 3.7052002 6.0859334 3.7052002 z "
       inkscape:label="Jar" />
    <path
       style="font-weight:bold;font-size:7.99999px;line-height:1.25;font-family:Nunito;-inkscape-font-specification:'Nunito Bold';text-align:center;letter-spacing:0px;word-spacing:0px;text-anchor:middle;fill:#ffffff;stroke-width:0.264583"
       d="m 5.8266642,12.354955 q -0.2479997,0 -0.3839996,-0.135999 -0.1279998,-0.144 -0.1279998,-0.392 V 7.170962 q 0,-0.2559997 0.1359998,-0.3839996 0.1359999,-0.1359998 0.3839995,-0.1359998 h 1.9279976 q 0.9279989,0 1.4319982,0.4639994 0.5039994,0.4639994 0.5039994,1.2959984 0,0.831999 -0.5039994,1.3039984 Q 8.6906606,10.178958 7.7626617,10.178958 H 6.3386635 v 1.647998 q 0,0.248 -0.1279998,0.392 -0.1279999,0.135999 -0.3839995,0.135999 z M 6.3386635,9.3709592 h 1.2639984 q 0.5439993,0 0.823999,-0.2399997 0.2799996,-0.2479997 0.2799996,-0.7199991 0,-0.4719994 -0.2799996,-0.7119991 Q 8.1466612,7.4589616 7.6026619,7.4589616 H 6.3386635 Z m 3.4240103,2.9759958 q -0.2239997,0.008 -0.3519996,-0.119999 -0.1279998,-0.128 -0.1279998,-0.328 0,-0.152 0.096,-0.264 0.088,-0.119999 0.2639996,-0.127999 l 0.2399997,-0.016 q 0.3519994,-0.024 0.5279994,-0.216 0.184,-0.2 0.184,-0.567999 V 7.106962 q 0,-0.2559996 0.128,-0.3839995 0.135999,-0.1359998 0.383999,-0.1359998 0.248,0 0.376,0.1359998 0.135999,0.1279999 0.135999,0.3839995 v 3.591996 q 0,0.503999 -0.183999,0.855998 -0.176,0.352 -0.528,0.552 -0.351999,0.192 -0.871999,0.223999 z"
       id="text1"
       inkscape:label="Label"
       aria-label="PJ" />
  </g>
</svg>
