<?xml version="1.0" encoding="UTF-8" standalone="no"?>
<!-- Created with Inkscape (http://www.inkscape.org/) -->

<svg
   width="63.999996"
   height="63.999996"
   viewBox="0 0 16.933332 16.933332"
   version="1.1"
   id="svg1"
   xmlns="http://www.w3.org/2000/svg"
   xmlns:svg="http://www.w3.org/2000/svg">
  <defs
     id="defs1" />
  <g
     id="layer1">
    <path
       id="rect4"
       style="fill:#ffffff;stroke-width:1.05833;stroke-linecap:round;paint-order:stroke markers fill"
       d="M 3.7041667,2.6458333 H 13.229166 V 6.3499999 H 3.7041667 Z" />
    <path
       id="path3"
       style="baseline-shift:baseline;display:inline;overflow:visible;opacity:1;vector-effect:none;fill:#292929;enable-background:accumulate;stop-color:#000000;stop-opacity:1"
       d="M 4.2421183,0.79271647 C 3.9937523,0.80045844 3.8172021,0.82131501 3.6602417,0.92190755 3.5032812,1.0225001 3.3323552,1.2249366 3.1579468,1.6815511 2.9853434,2.1334404 2.614924,2.414776 2.3693644,2.6701213 2.2465846,2.7977939 2.1557289,2.9147969 2.111499,3.0194539 2.0672691,3.1241108 2.0559493,3.2119556 2.1037476,3.3553507 2.1839355,3.5959143 2.4712548,3.762921 2.8985311,3.859196 3.3258074,3.955471 3.8429582,3.96875 4.2322998,3.96875 4.597136,3.96875 4.830001,3.909839 5.095813,3.843693 5.3616251,3.7775471 5.6619345,3.7052002 6.0859334,3.7052002 c 0.4535802,0 0.7678104,0.1554331 1.0877889,0.2831868 0.3199775,0.1277536 0.6667639,0.2439128 1.2929444,0.2439128 0.6261805,0 0.972967,-0.1161592 1.2929443,-0.2439128 0.319977,-0.1277537 0.634209,-0.2831868 1.087789,-0.2831868 0.423999,0 0.724824,0.072347 0.990637,0.1384928 0.265812,0.066146 0.496093,0.125057 0.860929,0.125057 0.389342,0 0.909077,-0.01328 1.336353,-0.109554 0.427276,-0.096274 0.714594,-0.2632789 0.794784,-0.5038453 0.04703,-0.1410839 0.03503,-0.2246839 -0.01189,-0.3281453 C 14.771294,2.9237439 14.67411,2.8058979 14.546916,2.6778727 14.292529,2.4218223 13.912058,2.1378441 13.769702,1.6639811 13.628674,1.1945356 13.46458,1.006153 13.310299,0.91415609 13.156018,0.82215917 12.968254,0.81080322 12.724805,0.81080322 Z" />
    <path
       style="fill:#ff9123;fill-opacity:1;stroke:none;stroke-width:0.264583px;stroke-linecap:butt;stroke-linejoin:miter;stroke-opacity:1"
       d="m 4.2333331,4.7624998 2.6458333,0.5291667 2.6458333,-0.5291667 3.1749993,0.5291667 0.529167,1e-7 V 13.49375 l -1.5875,1.852083 -6.3499998,-0.05523 -1.5874996,-1.796853 10e-8,-8.7312502 z"
       id="path2" />
    <path
       id="rect1"
       style="display:inline;fill:none;stroke:#292929;stroke-width:1.05833;stroke-linecap:round;paint-order:stroke markers fill"
       d="m 5.8365073,1.6141515 h 5.2603187 c 1.181317,0 2.132341,1.168155 2.132341,2.6191816 V 12.7 c 0,1.451027 -0.951024,2.619182 -2.132341,2.619182 H 5.8365073 C 4.6551907,15.319182 3.7041669,14.151027 3.7041669,12.7 V 4.2333331 c 0,-1.4510266 0.9510238,-2.6191816 2.1323404,-2.6191816 z" />
  </g>
  <text
     xml:space="preserve"
     style="font-size:7.99999px;line-height:1.25;font-family:sans-serif;text-align:center;letter-spacing:0px;word-spacing:0px;text-anchor:middle;fill:#ffffff;fill-opacity:1;stroke-width:0.264583"
     x="8.4626684"
     y="12.290956"
     id="text1"><tspan
       id="tspan1"
       style="font-style:normal;font-variant:normal;font-weight:bold;font-stretch:normal;font-family:Nunito;-inkscape-font-specification:'Nunito Bold';fill:#ffffff;fill-opacity:1;stroke-width:0.264583"
       x="8.4626684"
       y="12.290956">PJ</tspan></text>
</svg>
